<svg id="visual" viewBox="0 0 900 600" width="900" height="600" xmlns="http://www.w3.org/2000/svg" xmlns:xlink="http://www.w3.org/1999/xlink" version="1.1"><rect x="0" y="0" width="900" height="600" fill="#ffffff"></rect><path d="M0 432L16.7 427.5C33.3 423 66.7 414 100 404.2C133.3 394.3 166.7 383.7 200 377.5C233.3 371.3 266.7 369.7 300 375.7C333.3 381.7 366.7 395.3 400 404.3C433.3 413.3 466.7 417.7 500 423.8C533.3 430 566.7 438 600 434C633.3 430 666.7 414 700 413C733.3 412 766.7 426 800 423.3C833.3 420.7 866.7 401.3 883.3 391.7L900 382L900 601L883.3 601C866.7 601 833.3 601 800 601C766.7 601 733.3 601 700 601C666.7 601 633.3 601 600 601C566.7 601 533.3 601 500 601C466.7 601 433.3 601 400 601C366.7 601 333.3 601 300 601C266.7 601 233.3 601 200 601C166.7 601 133.3 601 100 601C66.7 601 33.3 601 16.7 601L0 601Z" fill="#f3fbfe"></path><path d="M0 511L16.7 506.3C33.3 501.7 66.7 492.3 100 487.5C133.3 482.7 166.7 482.3 200 485.3C233.3 488.3 266.7 494.7 300 488.7C333.3 482.7 366.7 464.3 400 461.7C433.3 459 466.7 472 500 474C533.3 476 566.7 467 600 467.2C633.3 467.3 666.7 476.7 700 485.2C733.3 493.7 766.7 501.3 800 498C833.3 494.7 866.7 480.3 883.3 473.2L900 466L900 601L883.3 601C866.7 601 833.3 601 800 601C766.7 601 733.3 601 700 601C666.7 601 633.3 601 600 601C566.7 601 533.3 601 500 601C466.7 601 433.3 601 400 601C366.7 601 333.3 601 300 601C266.7 601 233.3 601 200 601C166.7 601 133.3 601 100 601C66.7 601 33.3 601 16.7 601L0 601Z" fill="#ecf6ff"></path></svg>